<?xml version="1.0" standalone="no"?>
<!DOCTYPE svg PUBLIC "-//W3C//DTD SVG 20010904//EN"
 "http://www.w3.org/TR/2001/REC-SVG-20010904/DTD/svg10.dtd">
<svg version="1.0" xmlns="http://www.w3.org/2000/svg"
 width="512.000000pt" height="512.000000pt" viewBox="0 0 512.000000 512.000000"
 preserveAspectRatio="xMidYMid meet">

<g transform="translate(0.000000,512.000000) scale(0.100000,-0.100000)"
fill="#000000" stroke="none">
<path d="M3055 5100 c-23 -11 -130 -110 -254 -234 l-215 -215 -40 32 c-62 49
-88 64 -146 81 -89 26 -137 21 -303 -35 -276 -92 -538 -151 -811 -180 -101
-11 -109 -11 -119 6 -22 40 -84 99 -122 116 -37 17 -76 19 -486 19 l-446 0
-34 -23 c-19 -12 -44 -42 -57 -67 l-22 -45 2 -686 3 -686 28 -36 c56 -73 49
-72 457 -72 327 0 370 2 412 18 52 20 133 100 144 141 3 14 8 26 10 26 2 0 26
-14 53 -32 46 -31 48 -34 44 -69 -11 -81 -8 -85 471 -560 l451 -447 -23 -38
c-13 -22 -35 -62 -49 -91 l-26 -52 -111 -27 c-155 -38 -208 -59 -251 -101 -72
-70 -75 -84 -75 -393 0 -309 3 -323 75 -393 43 -42 87 -60 278 -113 l138 -39
56 -85 c34 -51 103 -132 175 -203 l118 -119 35 -156 c42 -187 49 -205 94 -255
61 -68 99 -81 243 -85 98 -3 138 0 175 12 65 22 118 67 149 127 l25 49 82 -7
c105 -10 269 -10 377 0 l86 8 13 -37 c7 -20 33 -56 56 -80 62 -61 122 -77 279
-72 132 4 163 14 224 72 51 47 66 86 106 266 35 155 39 166 69 189 58 44 185
179 237 253 157 221 234 472 229 745 l-2 132 70 75 c81 85 131 169 165 276 33
108 33 302 -1 410 -31 103 -70 140 -143 140 -54 0 -91 -31 -136 -112 -44 -81
-111 -150 -174 -178 l-41 -18 -81 85 c-259 274 -593 434 -986 474 -106 10
-304 6 -355 -8 -11 -3 226 242 527 543 608 611 586 583 557 689 -9 34 -85 115
-512 543 -276 277 -519 512 -539 523 -48 24 -102 24 -153 -1z m240 -347 c-71
-55 -187 -71 -267 -35 -83 37 -82 42 18 143 l89 89 90 -90 c87 -88 89 -91 70
-107z m457 -519 c-60 -90 -77 -144 -77 -249 0 -105 17 -159 77 -249 l40 -59
-473 -474 c-372 -371 -482 -476 -511 -485 -33 -10 -45 -7 -135 32 -220 94
-383 150 -440 150 -99 0 -183 -82 -183 -179 0 -21 15 -113 34 -202 19 -90 34
-165 32 -166 -1 -1 -111 107 -245 241 l-243 243 35 52 c114 165 109 361 -11
519 l-25 33 309 310 c288 288 311 309 344 309 26 0 46 -10 81 -40 l46 -39 -63
-64 c-101 -104 -144 -210 -144 -358 0 -238 153 -434 385 -494 403 -103 759
317 591 698 l-22 52 20 45 c14 32 20 67 20 120 2 139 -30 183 -279 392 l-195
163 55 54 54 55 45 -32 c134 -97 296 -112 439 -44 34 17 76 42 92 56 l30 25
179 -178 178 -178 -40 -59z m-1379 358 c20 -9 170 -129 332 -266 258 -218 296
-254 311 -293 30 -78 -11 -159 -93 -183 -71 -22 -100 -5 -308 176 -104 92
-208 175 -230 185 -55 26 -156 25 -215 -2 -33 -15 -154 -129 -475 -450 l-431
-429 -60 39 c-32 22 -73 53 -91 68 l-32 28 49 420 c27 231 52 434 55 451 l5
31 118 12 c266 29 562 94 832 185 149 50 177 54 233 28z m-1376 -94 c16 -15
23 -33 23 -60 0 -22 -29 -288 -65 -591 -63 -535 -66 -552 -90 -577 l-25 -25
-335 -3 -335 -3 0 641 0 640 402 0 c399 0 402 0 425 -22z m3010 -420 c46 -46
83 -87 83 -93 0 -6 -38 -48 -84 -94 -95 -94 -98 -95 -139 -17 -28 54 -30 165
-3 216 20 37 45 70 55 70 3 0 43 -37 88 -82z m-1356 -307 c35 -30 83 -63 107
-73 56 -25 135 -33 192 -18 75 19 74 19 88 -35 39 -148 -40 -316 -182 -385
-116 -56 -233 -48 -342 25 -54 37 -78 65 -115 135 -33 62 -35 212 -3 281 25
53 77 115 118 140 34 21 25 25 137 -70z m-1101 -521 c40 -78 35 -161 -15 -246
l-27 -47 -92 92 -91 91 90 90 c99 100 94 99 135 20z m825 -565 c68 -25 180
-70 247 -100 68 -30 131 -55 141 -55 11 0 65 15 120 34 558 189 1171 42 1528
-365 121 -138 113 -132 171 -126 107 13 252 106 328 209 l28 38 6 -31 c18 -91
0 -209 -47 -309 -30 -63 -109 -153 -187 -211 -34 -26 -35 -27 -30 -85 2 -33 4
-124 4 -204 0 -126 -4 -158 -27 -244 -64 -235 -191 -425 -396 -596 l-53 -45
-43 -190 c-54 -237 -52 -235 -191 -235 -64 0 -104 5 -124 15 -28 14 -32 23
-59 122 -9 31 -20 47 -42 59 -28 14 -39 14 -127 -2 -130 -23 -374 -23 -502 0
-136 24 -148 18 -187 -109 -24 -79 -39 -86 -171 -83 -139 4 -135 0 -187 237
-38 177 -40 184 -75 215 -119 105 -224 221 -284 313 -36 56 -74 107 -84 112
-10 5 -99 33 -197 61 -113 32 -188 59 -202 73 -23 20 -23 24 -23 267 0 243 0
247 23 267 14 14 77 36 182 63 88 23 168 49 179 58 10 10 31 45 46 79 16 35
55 102 87 150 32 47 66 99 76 114 19 29 18 31 -32 278 -28 137 -51 254 -51
260 0 18 25 13 155 -34z"/>
<path d="M3207 2469 c-116 -11 -247 -45 -274 -72 -44 -40 -23 -118 38 -140 9
-3 52 4 95 15 159 40 361 39 534 -3 l91 -22 27 20 c57 42 51 117 -11 147 -90
42 -345 70 -500 55z"/>
</g>
</svg>
