<?xml version="1.0" standalone="no"?>
<!DOCTYPE svg PUBLIC "-//W3C//DTD SVG 20010904//EN"
 "http://www.w3.org/TR/2001/REC-SVG-20010904/DTD/svg10.dtd">
<svg version="1.0" xmlns="http://www.w3.org/2000/svg"
 width="512.000000pt" height="512.000000pt" viewBox="0 0 512.000000 512.000000"
 preserveAspectRatio="xMidYMid meet">

<g transform="translate(0.000000,512.000000) scale(0.100000,-0.100000)"
fill="#000000" stroke="none">
<path d="M1032 5099 c-28 -14 -51 -36 -67 -64 l-25 -42 0 -530 0 -530 -212 -6
c-238 -7 -290 -16 -403 -75 -98 -50 -208 -163 -257 -262 -72 -145 -68 -48 -68
-1631 0 -1387 1 -1428 20 -1503 29 -113 73 -190 160 -277 53 -54 96 -86 147
-112 147 -73 -17 -68 2293 -65 l2075 3 47 22 c66 30 143 105 175 172 l28 56 3
437 c3 431 3 437 24 444 32 10 97 74 121 118 21 39 22 55 25 346 2 210 0 317
-8 344 -18 60 -58 113 -111 148 l-48 31 -3 431 -3 431 -26 55 c-24 52 -109
150 -130 150 -5 0 -9 88 -9 210 0 115 -5 231 -11 258 -22 105 -116 212 -214
245 l-39 13 3 52 c2 38 -3 62 -19 90 -23 40 -37 50 -847 596 l-323 217 0 52
c-1 86 -46 161 -113 186 -19 8 -361 11 -1085 11 -1056 0 -1057 0 -1100 -21z
m2128 -1004 l0 -855 -85 0 -84 0 -3 603 -3 602 -23 36 c-25 42 -81 69 -141 69
-56 0 -188 36 -238 65 -23 14 -61 51 -84 81 -61 83 -65 84 -369 84 -298 0
-311 -3 -363 -82 -55 -83 -153 -129 -311 -147 -99 -12 -140 -34 -162 -87 -11
-27 -14 -144 -14 -629 l0 -595 -85 0 -85 0 0 855 0 855 1025 0 1025 0 0 -855z
m708 208 c317 -213 480 -328 476 -336 -4 -7 -116 -173 -248 -369 l-240 -358
-99 0 c-87 0 -98 2 -93 16 3 9 57 91 120 183 132 194 146 219 146 263 0 48
-27 89 -96 146 -113 93 -162 175 -169 286 -2 35 -10 77 -18 92 -9 17 -75 69
-163 130 l-149 101 -3 103 -3 103 28 -18 c15 -10 245 -164 511 -342z m-1484
261 c76 -91 199 -151 357 -175 l79 -12 -2 -566 -3 -566 -85 0 -85 0 -6 55
c-22 203 -168 375 -368 434 -62 18 -193 21 -261 5 -192 -44 -350 -219 -382
-422 l-12 -77 -83 0 -83 0 0 568 0 568 76 12 c160 25 290 90 356 178 l33 43
215 1 216 0 38 -46z m1052 -381 c52 -34 52 -35 62 -106 17 -111 69 -205 167
-304 l82 -82 -150 -225 -150 -226 -59 0 -58 0 0 506 0 506 28 -18 c15 -9 50
-33 78 -51z m-2496 -518 l0 -85 -157 0 c-137 0 -164 -3 -203 -21 -94 -42 -150
-129 -150 -232 0 -99 45 -174 132 -223 l53 -29 2025 -5 c1514 -4 2030 -8 2045
-17 36 -20 75 -69 85 -104 6 -19 10 -200 10 -426 l0 -393 -422 0 c-335 0 -434
-3 -477 -15 -223 -59 -381 -265 -381 -495 0 -232 166 -441 391 -495 52 -12
144 -15 477 -15 l413 0 -3 -414 -3 -414 -31 -39 c-17 -21 -46 -46 -65 -55 -32
-17 -152 -18 -2079 -18 -2237 0 -2101 -4 -2212 57 -57 31 -138 113 -167 171
-53 104 -51 47 -51 1562 0 1238 2 1413 16 1465 37 144 143 257 289 307 41 14
87 17 258 18 l207 0 0 -85z m3577 68 c47 -22 85 -82 91 -143 2 -28 3 -50 1
-50 -2 0 -28 9 -57 20 -39 15 -76 20 -152 20 -55 0 -100 3 -100 7 0 4 23 42
51 85 50 76 53 78 91 78 22 0 56 -7 75 -17z m-2263 -174 c111 -41 202 -154
213 -265 l6 -54 -342 0 c-386 0 -353 -9 -328 87 28 106 115 201 217 236 65 23
168 21 234 -4z m-1314 -234 l0 -85 -139 0 c-135 0 -140 1 -170 26 -40 33 -43
83 -6 119 23 24 28 25 170 25 l145 0 0 -85z m3582 63 c43 -24 72 -65 83 -115
l7 -33 -272 0 c-149 0 -270 4 -268 9 2 4 26 42 53 84 l50 77 154 0 c140 0 157
-2 193 -22z m383 -1434 c40 -16 45 -50 45 -339 l0 -277 -30 -29 -29 -30 -483
3 -483 3 -57 28 c-72 35 -134 97 -167 167 -37 79 -37 201 0 280 33 71 70 114
126 147 90 53 85 52 590 53 259 0 479 -3 488 -6z"/>
<path d="M2050 4420 c-66 -22 -140 -96 -158 -157 -19 -63 -15 -132 12 -189 97
-209 408 -186 473 35 39 136 -36 276 -171 316 -64 19 -89 18 -156 -5z m148
-186 c12 -14 22 -34 22 -45 0 -28 -26 -75 -45 -83 -83 -32 -158 52 -109 122
33 48 92 50 132 6z"/>
<path d="M3974 1696 c-51 -22 -62 -95 -21 -134 21 -20 34 -22 143 -22 112 0
122 2 141 23 11 12 24 32 27 44 9 29 -16 76 -49 91 -35 16 -202 15 -241 -2z"/>
</g>
</svg>
