<?xml version="1.0" standalone="no"?>
<!DOCTYPE svg PUBLIC "-//W3C//DTD SVG 20010904//EN"
 "http://www.w3.org/TR/2001/REC-SVG-20010904/DTD/svg10.dtd">
<svg version="1.0" xmlns="http://www.w3.org/2000/svg"
 width="512.000000pt" height="512.000000pt" viewBox="0 0 512.000000 512.000000"
 preserveAspectRatio="xMidYMid meet">

<g transform="translate(0.000000,512.000000) scale(0.100000,-0.100000)"
fill="#000000" stroke="none">
<path d="M190 5111 c-69 -21 -130 -73 -166 -141 -17 -31 -19 -64 -22 -258 -3
-182 -1 -231 12 -270 22 -65 66 -115 128 -146 l52 -26 413 0 412 0 3 -922 3
-923 23 -37 c13 -20 40 -47 60 -60 l37 -23 1416 0 1415 0 41 27 c22 14 48 43
59 65 18 36 19 76 22 956 l2 917 413 0 413 0 52 26 c62 31 106 81 128 146 13
39 15 88 12 270 -3 208 -5 226 -25 264 -31 58 -104 119 -158 133 -51 13 -4703
15 -4745 2z m4731 -190 l29 -29 0 -192 c0 -199 -7 -239 -45 -254 -9 -3 -194
-6 -411 -6 l-394 0 0 85 0 85 270 0 271 0 24 25 c41 40 33 105 -16 130 -42 22
-4136 22 -4178 0 -49 -25 -57 -90 -16 -130 l24 -25 271 0 270 0 0 -85 0 -85
-394 0 c-217 0 -402 3 -411 6 -38 15 -45 55 -45 254 l0 192 29 29 29 29 2332
0 2332 0 29 -29z m-3371 -388 c34 -216 129 -401 285 -559 94 -95 173 -150 299
-209 148 -70 243 -90 426 -89 185 0 282 20 426 88 127 60 205 115 299 210 156
158 251 343 285 559 l13 77 171 -2 171 -3 3 -682 2 -682 -37 -7 c-197 -33
-353 -112 -484 -243 -131 -131 -210 -287 -243 -483 l-7 -38 -599 0 -599 0 -7
38 c-33 196 -112 352 -243 483 -132 132 -286 210 -483 243 l-38 7 0 678 c0
373 3 681 7 684 3 4 81 7 173 7 l167 0 13 -77z m1855 40 c-37 -217 -149 -415
-307 -540 -321 -256 -755 -256 -1076 0 -158 125 -270 323 -307 540 l-6 37 851
0 851 0 -6 -37z m-2055 -1546 c96 -39 169 -87 240 -157 98 -99 174 -241 187
-350 l6 -50 -294 2 -294 3 -3 294 -2 294 50 -6 c27 -3 77 -17 110 -30z m2578
-259 l-3 -293 -292 -3 -293 -2 0 28 c0 114 119 324 237 416 101 80 243 144
321 145 l32 1 -2 -292z"/>
<path d="M2470 3489 c-71 -14 -151 -59 -211 -118 -207 -207 -146 -554 120
-684 63 -30 72 -32 181 -32 111 0 118 1 183 33 85 42 156 113 196 194 158 321
-116 676 -469 607z m153 -170 c145 -36 229 -207 172 -347 -21 -52 -103 -128
-153 -142 -58 -16 -142 -12 -187 9 -51 24 -109 84 -131 136 -9 22 -16 67 -16
100 -1 166 153 285 315 244z"/>
<path d="M2369 1699 c-89 -13 -156 -45 -282 -135 -64 -47 -136 -92 -158 -99
-31 -11 -90 -15 -228 -15 l-186 0 -33 35 c-24 24 -49 37 -85 45 -36 8 -239 10
-662 8 -681 -3 -645 1 -702 -75 l-28 -36 -3 -461 c-2 -254 0 -476 3 -494 8
-45 68 -109 113 -122 23 -6 268 -10 657 -10 587 0 622 1 662 19 23 11 49 31
59 46 l17 27 226 -4 226 -4 557 -201 c306 -111 584 -207 618 -214 118 -23 280
7 390 73 77 47 1321 1049 1359 1095 18 21 39 62 48 92 47 163 -63 323 -240
347 -86 12 -137 -13 -360 -174 -112 -82 -209 -152 -215 -155 -6 -4 -23 16 -41
47 -30 54 -68 89 -128 120 -27 13 -1352 236 -1483 249 -25 2 -70 0 -101 -4z
m811 -280 c371 -60 689 -116 707 -124 68 -30 79 -112 21 -160 l-30 -25 -630 0
-630 0 -29 -29 c-31 -31 -36 -59 -17 -94 23 -44 35 -46 213 -47 l170 0 181
-154 c100 -85 196 -162 212 -170 35 -18 88 -21 126 -6 15 5 277 193 584 416
306 224 571 411 587 417 70 21 144 -47 130 -119 -7 -41 23 -15 -735 -624 -311
-250 -583 -464 -605 -477 -66 -36 -160 -56 -233 -49 -45 5 -216 62 -615 205
-304 109 -576 203 -605 210 -29 6 -141 11 -247 11 l-195 0 0 339 0 339 203 4
c244 5 260 10 422 129 116 86 152 106 219 119 53 10 13 15 796 -111z m-1815
-479 l0 -425 -597 -3 -598 -2 0 423 c0 233 3 427 7 430 3 4 272 6 597 5 l591
-3 0 -425z m2270 -9 c-6 -5 -57 -43 -114 -85 l-103 -75 -90 76 c-49 42 -91 80
-94 85 -3 4 88 8 202 8 121 0 204 -4 199 -9z"/>
</g>
</svg>
