<?xml version="1.0" standalone="no"?>
<!DOCTYPE svg PUBLIC "-//W3C//DTD SVG 20010904//EN"
 "http://www.w3.org/TR/2001/REC-SVG-20010904/DTD/svg10.dtd">
<svg version="1.0" xmlns="http://www.w3.org/2000/svg"
 width="512.000000pt" height="512.000000pt" viewBox="0 0 512.000000 512.000000"
 preserveAspectRatio="xMidYMid meet">

<g transform="translate(0.000000,512.000000) scale(0.100000,-0.100000)"
fill="#000000" stroke="none">
<path d="M3065 5101 c-25 -12 -120 -100 -255 -235 -118 -119 -218 -216 -221
-216 -4 0 -29 18 -55 40 -68 56 -142 83 -229 83 -59 1 -95 -8 -224 -51 -242
-82 -466 -135 -714 -167 -172 -22 -193 -21 -211 13 -21 40 -65 78 -116 101
-43 20 -64 21 -479 21 l-434 0 -43 -25 c-28 -16 -49 -39 -63 -68 -21 -43 -21
-54 -21 -715 0 -449 4 -680 11 -699 14 -38 57 -83 96 -99 50 -21 721 -20 784
1 62 21 113 66 142 124 l24 50 51 -35 c48 -32 50 -36 45 -69 -13 -79 -6 -88
534 -627 528 -526 531 -528 608 -528 60 1 114 52 1027 966 830 832 928 933
938 972 11 42 3 97 -19 131 -5 7 -238 243 -517 522 -517 518 -530 529 -599
529 -11 0 -38 -9 -60 -19z m159 -250 l88 -89 -38 -26 c-84 -57 -195 -57 -285
0 l-42 26 89 89 c49 49 91 89 94 89 3 0 45 -40 94 -89z m-338 -251 c82 -57
142 -75 249 -74 105 1 175 23 250 81 l47 36 180 -180 180 -180 -35 -46 c-57
-75 -80 -147 -81 -252 -1 -108 17 -167 75 -251 l41 -57 -600 -600 -601 -601
-33 26 c-159 121 -374 126 -523 12 -25 -19 -48 -34 -52 -34 -9 0 -353 342
-353 351 0 4 20 36 44 72 101 150 97 329 -11 485 l-37 54 310 309 c352 352
333 339 422 269 l51 -41 -62 -62 c-65 -65 -118 -157 -136 -237 -16 -68 -13
-199 5 -261 26 -88 72 -164 138 -227 104 -100 211 -142 360 -142 199 1 363
104 451 284 65 134 70 282 13 421 l-24 61 19 43 c41 94 30 207 -29 298 -16 24
-115 115 -226 209 l-199 168 53 53 c29 29 53 53 55 53 1 0 27 -18 59 -40z
m-499 -19 c18 -9 160 -124 317 -256 309 -260 335 -289 322 -363 -15 -94 -123
-150 -206 -107 -15 8 -108 85 -207 171 -197 172 -248 204 -333 204 -105 0
-116 -9 -580 -474 -234 -234 -429 -426 -433 -426 -7 0 -131 82 -169 113 -16
13 -14 41 33 438 27 233 51 438 54 455 l5 31 93 7 c224 17 571 91 837 180 74
24 144 46 155 49 29 6 76 -3 112 -22z m-1392 -86 c18 -17 25 -35 25 -63 0 -52
-127 -1122 -135 -1145 -17 -44 -46 -47 -390 -47 l-325 0 0 640 0 640 400 0
401 0 24 -25z m3010 -605 l-90 -91 -22 28 c-69 85 -66 234 5 316 15 17 21 13
106 -72 l91 -91 -90 -90z m-1256 -192 c58 -28 170 -35 228 -15 l43 15 15 -51
c20 -68 19 -112 -5 -190 -26 -84 -96 -164 -178 -204 -50 -24 -68 -28 -147 -28
-107 0 -163 23 -235 95 -63 63 -92 126 -98 216 -8 120 40 227 129 293 l42 30
81 -70 c44 -38 101 -79 125 -91z m-1220 -415 c12 -14 29 -51 37 -81 13 -45 14
-65 5 -111 -10 -51 -52 -131 -68 -131 -4 0 -47 39 -95 87 l-88 88 87 87 c48
49 91 88 95 88 3 0 16 -12 27 -27z m870 -882 c74 -38 74 -43 -20 -137 -46 -46
-88 -84 -94 -84 -6 0 -48 38 -95 85 l-85 85 22 21 c56 57 190 71 272 30z"/>
<path d="M2915 1585 c-368 -63 -687 -119 -709 -126 -51 -17 -128 -87 -151
-139 -10 -22 -23 -39 -29 -37 -6 3 -99 69 -206 147 -107 79 -215 152 -240 163
-131 59 -308 -14 -365 -150 -35 -83 -12 -217 48 -281 12 -13 177 -148 366
-300 189 -153 479 -386 645 -520 315 -254 381 -297 506 -328 47 -12 91 -15
160 -11 104 5 25 -21 998 321 l273 96 127 0 c116 0 128 -2 140 -20 6 -11 30
-29 52 -40 36 -18 58 -20 248 -20 199 0 211 1 252 23 30 16 51 37 67 67 l23
43 0 461 c0 428 -2 464 -19 502 -10 23 -34 52 -52 65 -33 23 -41 24 -249 27
-238 4 -275 -2 -314 -48 l-25 -30 -119 0 c-65 0 -134 5 -153 11 -19 7 -65 35
-104 62 -210 153 -269 178 -414 176 -60 -1 -285 -35 -756 -114z m869 -71 c26
-9 98 -54 159 -100 152 -114 187 -127 360 -132 l137 -4 -2 -341 -3 -342 -140
-6 -140 -6 -575 -203 -575 -204 -100 -1 c-92 0 -105 3 -165 31 -46 23 -248
179 -695 538 -346 279 -640 518 -652 532 -57 63 -9 164 79 164 42 0 69 -19
605 -409 310 -226 571 -415 582 -420 32 -17 113 -13 146 7 17 11 111 87 209
170 l179 152 167 0 c154 0 169 2 194 21 26 21 35 65 20 104 -17 44 -27 45
-689 45 l-627 0 -29 29 c-39 39 -40 89 -1 131 l27 31 675 113 c371 63 705 114
741 115 37 1 86 -6 113 -15z m1166 -579 l0 -425 -170 0 -170 0 0 425 0 425
170 0 170 0 0 -425z m-2030 1 c0 -2 -43 -40 -96 -85 l-96 -81 -47 33 c-25 18
-74 53 -108 78 -34 24 -63 47 -63 52 0 4 92 7 205 7 113 0 205 -2 205 -4z"/>
</g>
</svg>
